G75*
%MOMM*%
%OFA0B0*%
%FSLAX33Y33*%
%IPPOS*%
%LPD*%
%AMOC8*
5,1,8,0,0,1.08239X$1,22.5*
%
%ADD10C,0.000*%
D10*
X06045Y06351D02*
X06045Y87154D01*
X94945Y87154D01*
X94945Y06351D01*
X06045Y06351D01*
X08966Y10796D02*
X08968Y10874D01*
X08974Y10951D01*
X08984Y11029D01*
X08998Y11105D01*
X09015Y11181D01*
X09037Y11256D01*
X09062Y11329D01*
X09091Y11402D01*
X09124Y11472D01*
X09161Y11541D01*
X09200Y11608D01*
X09243Y11673D01*
X09290Y11735D01*
X09339Y11795D01*
X09392Y11853D01*
X09447Y11907D01*
X09505Y11959D01*
X09566Y12008D01*
X09629Y12054D01*
X09695Y12096D01*
X09762Y12135D01*
X09831Y12170D01*
X09902Y12202D01*
X09975Y12230D01*
X10049Y12255D01*
X10124Y12275D01*
X10200Y12292D01*
X10277Y12305D01*
X10354Y12314D01*
X10432Y12319D01*
X10509Y12320D01*
X10587Y12317D01*
X10665Y12310D01*
X10742Y12299D01*
X10818Y12284D01*
X10894Y12266D01*
X10968Y12243D01*
X11042Y12217D01*
X11113Y12187D01*
X11184Y12153D01*
X11252Y12116D01*
X11318Y12075D01*
X11383Y12031D01*
X11445Y11984D01*
X11504Y11934D01*
X11561Y11880D01*
X11615Y11824D01*
X11666Y11766D01*
X11714Y11704D01*
X11759Y11641D01*
X11800Y11575D01*
X11838Y11507D01*
X11873Y11437D01*
X11904Y11366D01*
X11931Y11293D01*
X11954Y11219D01*
X11974Y11143D01*
X11990Y11067D01*
X12002Y10990D01*
X12010Y10913D01*
X12014Y10835D01*
X12014Y10757D01*
X12010Y10679D01*
X12002Y10602D01*
X11990Y10525D01*
X11974Y10449D01*
X11954Y10373D01*
X11931Y10299D01*
X11904Y10226D01*
X11873Y10155D01*
X11838Y10085D01*
X11800Y10017D01*
X11759Y09951D01*
X11714Y09888D01*
X11666Y09826D01*
X11615Y09768D01*
X11561Y09712D01*
X11504Y09658D01*
X11445Y09608D01*
X11383Y09561D01*
X11318Y09517D01*
X11252Y09476D01*
X11184Y09439D01*
X11113Y09405D01*
X11042Y09375D01*
X10968Y09349D01*
X10894Y09326D01*
X10818Y09308D01*
X10742Y09293D01*
X10665Y09282D01*
X10587Y09275D01*
X10509Y09272D01*
X10432Y09273D01*
X10354Y09278D01*
X10277Y09287D01*
X10200Y09300D01*
X10124Y09317D01*
X10049Y09337D01*
X09975Y09362D01*
X09902Y09390D01*
X09831Y09422D01*
X09762Y09457D01*
X09695Y09496D01*
X09629Y09538D01*
X09566Y09584D01*
X09505Y09633D01*
X09447Y09685D01*
X09392Y09739D01*
X09339Y09797D01*
X09290Y09857D01*
X09243Y09919D01*
X09200Y09984D01*
X09161Y10051D01*
X09124Y10120D01*
X09091Y10190D01*
X09062Y10263D01*
X09037Y10336D01*
X09015Y10411D01*
X08998Y10487D01*
X08984Y10563D01*
X08974Y10641D01*
X08968Y10718D01*
X08966Y10796D01*
X73035Y78556D02*
X73035Y81556D01*
X74035Y81556D01*
X74035Y78556D01*
X73035Y78556D01*
X76685Y77606D02*
X76685Y76606D01*
X80185Y76606D01*
X80185Y77606D01*
X76685Y77606D01*
X76935Y82606D02*
X76935Y83606D01*
X79935Y83606D01*
X79935Y82606D01*
X76935Y82606D01*
X88976Y82709D02*
X88978Y82787D01*
X88984Y82864D01*
X88994Y82942D01*
X89008Y83018D01*
X89025Y83094D01*
X89047Y83169D01*
X89072Y83242D01*
X89101Y83315D01*
X89134Y83385D01*
X89171Y83454D01*
X89210Y83521D01*
X89253Y83586D01*
X89300Y83648D01*
X89349Y83708D01*
X89402Y83766D01*
X89457Y83820D01*
X89515Y83872D01*
X89576Y83921D01*
X89639Y83967D01*
X89705Y84009D01*
X89772Y84048D01*
X89841Y84083D01*
X89912Y84115D01*
X89985Y84143D01*
X90059Y84168D01*
X90134Y84188D01*
X90210Y84205D01*
X90287Y84218D01*
X90364Y84227D01*
X90442Y84232D01*
X90519Y84233D01*
X90597Y84230D01*
X90675Y84223D01*
X90752Y84212D01*
X90828Y84197D01*
X90904Y84179D01*
X90978Y84156D01*
X91052Y84130D01*
X91123Y84100D01*
X91194Y84066D01*
X91262Y84029D01*
X91328Y83988D01*
X91393Y83944D01*
X91455Y83897D01*
X91514Y83847D01*
X91571Y83793D01*
X91625Y83737D01*
X91676Y83679D01*
X91724Y83617D01*
X91769Y83554D01*
X91810Y83488D01*
X91848Y83420D01*
X91883Y83350D01*
X91914Y83279D01*
X91941Y83206D01*
X91964Y83132D01*
X91984Y83056D01*
X92000Y82980D01*
X92012Y82903D01*
X92020Y82826D01*
X92024Y82748D01*
X92024Y82670D01*
X92020Y82592D01*
X92012Y82515D01*
X92000Y82438D01*
X91984Y82362D01*
X91964Y82286D01*
X91941Y82212D01*
X91914Y82139D01*
X91883Y82068D01*
X91848Y81998D01*
X91810Y81930D01*
X91769Y81864D01*
X91724Y81801D01*
X91676Y81739D01*
X91625Y81681D01*
X91571Y81625D01*
X91514Y81571D01*
X91455Y81521D01*
X91393Y81474D01*
X91328Y81430D01*
X91262Y81389D01*
X91194Y81352D01*
X91123Y81318D01*
X91052Y81288D01*
X90978Y81262D01*
X90904Y81239D01*
X90828Y81221D01*
X90752Y81206D01*
X90675Y81195D01*
X90597Y81188D01*
X90519Y81185D01*
X90442Y81186D01*
X90364Y81191D01*
X90287Y81200D01*
X90210Y81213D01*
X90134Y81230D01*
X90059Y81250D01*
X89985Y81275D01*
X89912Y81303D01*
X89841Y81335D01*
X89772Y81370D01*
X89705Y81409D01*
X89639Y81451D01*
X89576Y81497D01*
X89515Y81546D01*
X89457Y81598D01*
X89402Y81652D01*
X89349Y81710D01*
X89300Y81770D01*
X89253Y81832D01*
X89210Y81897D01*
X89171Y81964D01*
X89134Y82033D01*
X89101Y82103D01*
X89072Y82176D01*
X89047Y82249D01*
X89025Y82324D01*
X89008Y82400D01*
X88994Y82476D01*
X88984Y82554D01*
X88978Y82631D01*
X88976Y82709D01*
X83820Y33136D02*
X83822Y33206D01*
X83828Y33276D01*
X83838Y33345D01*
X83851Y33414D01*
X83869Y33482D01*
X83890Y33549D01*
X83915Y33614D01*
X83944Y33678D01*
X83976Y33741D01*
X84012Y33801D01*
X84051Y33859D01*
X84093Y33915D01*
X84138Y33969D01*
X84186Y34020D01*
X84237Y34068D01*
X84291Y34113D01*
X84347Y34155D01*
X84405Y34194D01*
X84465Y34230D01*
X84528Y34262D01*
X84592Y34291D01*
X84657Y34316D01*
X84724Y34337D01*
X84792Y34355D01*
X84861Y34368D01*
X84930Y34378D01*
X85000Y34384D01*
X85070Y34386D01*
X85140Y34384D01*
X85210Y34378D01*
X85279Y34368D01*
X85348Y34355D01*
X85416Y34337D01*
X85483Y34316D01*
X85548Y34291D01*
X85612Y34262D01*
X85675Y34230D01*
X85735Y34194D01*
X85793Y34155D01*
X85849Y34113D01*
X85903Y34068D01*
X85954Y34020D01*
X86002Y33969D01*
X86047Y33915D01*
X86089Y33859D01*
X86128Y33801D01*
X86164Y33741D01*
X86196Y33678D01*
X86225Y33614D01*
X86250Y33549D01*
X86271Y33482D01*
X86289Y33414D01*
X86302Y33345D01*
X86312Y33276D01*
X86318Y33206D01*
X86320Y33136D01*
X86318Y33066D01*
X86312Y32996D01*
X86302Y32927D01*
X86289Y32858D01*
X86271Y32790D01*
X86250Y32723D01*
X86225Y32658D01*
X86196Y32594D01*
X86164Y32531D01*
X86128Y32471D01*
X86089Y32413D01*
X86047Y32357D01*
X86002Y32303D01*
X85954Y32252D01*
X85903Y32204D01*
X85849Y32159D01*
X85793Y32117D01*
X85735Y32078D01*
X85675Y32042D01*
X85612Y32010D01*
X85548Y31981D01*
X85483Y31956D01*
X85416Y31935D01*
X85348Y31917D01*
X85279Y31904D01*
X85210Y31894D01*
X85140Y31888D01*
X85070Y31886D01*
X85000Y31888D01*
X84930Y31894D01*
X84861Y31904D01*
X84792Y31917D01*
X84724Y31935D01*
X84657Y31956D01*
X84592Y31981D01*
X84528Y32010D01*
X84465Y32042D01*
X84405Y32078D01*
X84347Y32117D01*
X84291Y32159D01*
X84237Y32204D01*
X84186Y32252D01*
X84138Y32303D01*
X84093Y32357D01*
X84051Y32413D01*
X84012Y32471D01*
X83976Y32531D01*
X83944Y32594D01*
X83915Y32658D01*
X83890Y32723D01*
X83869Y32790D01*
X83851Y32858D01*
X83838Y32927D01*
X83828Y32996D01*
X83822Y33066D01*
X83820Y33136D01*
X88976Y10796D02*
X88978Y10874D01*
X88984Y10951D01*
X88994Y11029D01*
X89008Y11105D01*
X89025Y11181D01*
X89047Y11256D01*
X89072Y11329D01*
X89101Y11402D01*
X89134Y11472D01*
X89171Y11541D01*
X89210Y11608D01*
X89253Y11673D01*
X89300Y11735D01*
X89349Y11795D01*
X89402Y11853D01*
X89457Y11907D01*
X89515Y11959D01*
X89576Y12008D01*
X89639Y12054D01*
X89705Y12096D01*
X89772Y12135D01*
X89841Y12170D01*
X89912Y12202D01*
X89985Y12230D01*
X90059Y12255D01*
X90134Y12275D01*
X90210Y12292D01*
X90287Y12305D01*
X90364Y12314D01*
X90442Y12319D01*
X90519Y12320D01*
X90597Y12317D01*
X90675Y12310D01*
X90752Y12299D01*
X90828Y12284D01*
X90904Y12266D01*
X90978Y12243D01*
X91052Y12217D01*
X91123Y12187D01*
X91194Y12153D01*
X91262Y12116D01*
X91328Y12075D01*
X91393Y12031D01*
X91455Y11984D01*
X91514Y11934D01*
X91571Y11880D01*
X91625Y11824D01*
X91676Y11766D01*
X91724Y11704D01*
X91769Y11641D01*
X91810Y11575D01*
X91848Y11507D01*
X91883Y11437D01*
X91914Y11366D01*
X91941Y11293D01*
X91964Y11219D01*
X91984Y11143D01*
X92000Y11067D01*
X92012Y10990D01*
X92020Y10913D01*
X92024Y10835D01*
X92024Y10757D01*
X92020Y10679D01*
X92012Y10602D01*
X92000Y10525D01*
X91984Y10449D01*
X91964Y10373D01*
X91941Y10299D01*
X91914Y10226D01*
X91883Y10155D01*
X91848Y10085D01*
X91810Y10017D01*
X91769Y09951D01*
X91724Y09888D01*
X91676Y09826D01*
X91625Y09768D01*
X91571Y09712D01*
X91514Y09658D01*
X91455Y09608D01*
X91393Y09561D01*
X91328Y09517D01*
X91262Y09476D01*
X91194Y09439D01*
X91123Y09405D01*
X91052Y09375D01*
X90978Y09349D01*
X90904Y09326D01*
X90828Y09308D01*
X90752Y09293D01*
X90675Y09282D01*
X90597Y09275D01*
X90519Y09272D01*
X90442Y09273D01*
X90364Y09278D01*
X90287Y09287D01*
X90210Y09300D01*
X90134Y09317D01*
X90059Y09337D01*
X89985Y09362D01*
X89912Y09390D01*
X89841Y09422D01*
X89772Y09457D01*
X89705Y09496D01*
X89639Y09538D01*
X89576Y09584D01*
X89515Y09633D01*
X89457Y09685D01*
X89402Y09739D01*
X89349Y09797D01*
X89300Y09857D01*
X89253Y09919D01*
X89210Y09984D01*
X89171Y10051D01*
X89134Y10120D01*
X89101Y10190D01*
X89072Y10263D01*
X89047Y10336D01*
X89025Y10411D01*
X89008Y10487D01*
X88994Y10563D01*
X88984Y10641D01*
X88978Y10718D01*
X88976Y10796D01*
X08966Y82709D02*
X08968Y82787D01*
X08974Y82864D01*
X08984Y82942D01*
X08998Y83018D01*
X09015Y83094D01*
X09037Y83169D01*
X09062Y83242D01*
X09091Y83315D01*
X09124Y83385D01*
X09161Y83454D01*
X09200Y83521D01*
X09243Y83586D01*
X09290Y83648D01*
X09339Y83708D01*
X09392Y83766D01*
X09447Y83820D01*
X09505Y83872D01*
X09566Y83921D01*
X09629Y83967D01*
X09695Y84009D01*
X09762Y84048D01*
X09831Y84083D01*
X09902Y84115D01*
X09975Y84143D01*
X10049Y84168D01*
X10124Y84188D01*
X10200Y84205D01*
X10277Y84218D01*
X10354Y84227D01*
X10432Y84232D01*
X10509Y84233D01*
X10587Y84230D01*
X10665Y84223D01*
X10742Y84212D01*
X10818Y84197D01*
X10894Y84179D01*
X10968Y84156D01*
X11042Y84130D01*
X11113Y84100D01*
X11184Y84066D01*
X11252Y84029D01*
X11318Y83988D01*
X11383Y83944D01*
X11445Y83897D01*
X11504Y83847D01*
X11561Y83793D01*
X11615Y83737D01*
X11666Y83679D01*
X11714Y83617D01*
X11759Y83554D01*
X11800Y83488D01*
X11838Y83420D01*
X11873Y83350D01*
X11904Y83279D01*
X11931Y83206D01*
X11954Y83132D01*
X11974Y83056D01*
X11990Y82980D01*
X12002Y82903D01*
X12010Y82826D01*
X12014Y82748D01*
X12014Y82670D01*
X12010Y82592D01*
X12002Y82515D01*
X11990Y82438D01*
X11974Y82362D01*
X11954Y82286D01*
X11931Y82212D01*
X11904Y82139D01*
X11873Y82068D01*
X11838Y81998D01*
X11800Y81930D01*
X11759Y81864D01*
X11714Y81801D01*
X11666Y81739D01*
X11615Y81681D01*
X11561Y81625D01*
X11504Y81571D01*
X11445Y81521D01*
X11383Y81474D01*
X11318Y81430D01*
X11252Y81389D01*
X11184Y81352D01*
X11113Y81318D01*
X11042Y81288D01*
X10968Y81262D01*
X10894Y81239D01*
X10818Y81221D01*
X10742Y81206D01*
X10665Y81195D01*
X10587Y81188D01*
X10509Y81185D01*
X10432Y81186D01*
X10354Y81191D01*
X10277Y81200D01*
X10200Y81213D01*
X10124Y81230D01*
X10049Y81250D01*
X09975Y81275D01*
X09902Y81303D01*
X09831Y81335D01*
X09762Y81370D01*
X09695Y81409D01*
X09629Y81451D01*
X09566Y81497D01*
X09505Y81546D01*
X09447Y81598D01*
X09392Y81652D01*
X09339Y81710D01*
X09290Y81770D01*
X09243Y81832D01*
X09200Y81897D01*
X09161Y81964D01*
X09124Y82033D01*
X09091Y82103D01*
X09062Y82176D01*
X09037Y82249D01*
X09015Y82324D01*
X08998Y82400D01*
X08984Y82476D01*
X08974Y82554D01*
X08968Y82631D01*
X08966Y82709D01*
M02*
