G75*
%MOMM*%
%OFA0B0*%
%FSLAX33Y33*%
%IPPOS*%
%LPD*%
%AMOC8*
5,1,8,0,0,1.08239X$1,22.5*
%
%ADD10C,3.251*%
%ADD11C,1.524*%
%ADD12C,2.743*%
%ADD13C,1.727*%
%ADD14OC8,1.524*%
%ADD15C,1.524*%
%ADD16C,1.880*%
%ADD17C,2.743*%
%ADD18OC8,2.743*%
%ADD19C,1.626*%
%ADD20C,2.703*%
%ADD21OC8,1.727*%
%ADD22C,1.511*%
%ADD23C,5.283*%
%ADD24OC8,1.626*%
%ADD25OC8,2.184*%
%ADD26C,0.584*%
%ADD27OC8,1.661*%
%ADD28C,3.519*%
%ADD29C,1.711*%
%ADD30OC8,1.210*%
%ADD31OC8,1.110*%
D10*
X10490Y10796D03*
X10490Y82709D03*
X90500Y82709D03*
X90500Y10796D03*
D11*
X90607Y33656D02*
X91664Y33656D01*
X91664Y36196D02*
X90607Y36196D01*
X90607Y38736D02*
X91664Y38736D01*
X91664Y41276D02*
X90607Y41276D01*
X90607Y43816D02*
X91664Y43816D01*
X91664Y46356D02*
X90607Y46356D01*
X85949Y45721D02*
X84892Y45721D01*
X84892Y43181D02*
X85949Y43181D01*
X85949Y40641D02*
X84892Y40641D01*
X84892Y38101D02*
X85949Y38101D01*
X78329Y38101D02*
X77272Y38101D01*
X77272Y40641D02*
X78329Y40641D01*
X78329Y43181D02*
X77272Y43181D01*
X77272Y45721D02*
X78329Y45721D01*
X78329Y48261D02*
X77272Y48261D01*
X77272Y50801D02*
X78329Y50801D01*
X78329Y53341D02*
X77272Y53341D01*
X77272Y55881D02*
X78329Y55881D01*
X76530Y59797D02*
X76530Y60854D01*
X73990Y60854D02*
X73990Y59797D01*
X71450Y59797D02*
X71450Y60854D01*
X68910Y60854D02*
X68910Y59797D01*
X66370Y59797D02*
X66370Y60854D01*
X63830Y60854D02*
X63830Y59797D01*
X61290Y59797D02*
X61290Y60854D01*
X58750Y60854D02*
X58750Y59797D01*
X58750Y53869D02*
X58750Y52812D01*
X61290Y52812D02*
X61290Y53869D01*
X63830Y53869D02*
X63830Y52812D01*
X66370Y52812D02*
X66370Y53869D01*
X56210Y53869D02*
X56210Y52812D01*
X53670Y52812D02*
X53670Y53869D01*
X51130Y53869D02*
X51130Y52812D01*
X48590Y52812D02*
X48590Y53869D01*
X46050Y53869D02*
X46050Y52812D01*
X43510Y52812D02*
X43510Y53869D01*
X40970Y53869D02*
X40970Y52812D01*
X38430Y52812D02*
X38430Y53869D01*
X35890Y53869D02*
X35890Y52812D01*
X33350Y52812D02*
X33350Y53869D01*
X30810Y53869D02*
X30810Y52812D01*
X28270Y52812D02*
X28270Y53869D01*
X25730Y53869D02*
X25730Y52812D01*
X23190Y52812D02*
X23190Y53869D01*
X20650Y53869D02*
X20650Y52812D01*
X18110Y52812D02*
X18110Y53869D01*
X18110Y38629D02*
X18110Y37572D01*
X20650Y37572D02*
X20650Y38629D01*
X23190Y38629D02*
X23190Y37572D01*
X25730Y37572D02*
X25730Y38629D01*
X28270Y38629D02*
X28270Y37572D01*
X30810Y37572D02*
X30810Y38629D01*
X33350Y38629D02*
X33350Y37572D01*
X35890Y37572D02*
X35890Y38629D01*
X38430Y38629D02*
X38430Y37572D01*
X40970Y37572D02*
X40970Y38629D01*
X43510Y38629D02*
X43510Y37572D01*
X46050Y37572D02*
X46050Y38629D01*
X48590Y38629D02*
X48590Y37572D01*
X51130Y37572D02*
X51130Y38629D01*
X53670Y38629D02*
X53670Y37572D01*
X56210Y37572D02*
X56210Y38629D01*
X58750Y38629D02*
X58750Y37572D01*
X61290Y37572D02*
X61290Y38629D01*
X63830Y38629D02*
X63830Y37572D01*
X66370Y37572D02*
X66370Y38629D01*
X84892Y48261D02*
X85949Y48261D01*
X85949Y50801D02*
X84892Y50801D01*
X84892Y53341D02*
X85949Y53341D01*
X85949Y55881D02*
X84892Y55881D01*
X76530Y67417D02*
X76530Y68474D01*
X73990Y68474D02*
X73990Y67417D01*
X71450Y67417D02*
X71450Y68474D01*
X68910Y68474D02*
X68910Y67417D01*
X66370Y67417D02*
X66370Y68474D01*
X63830Y68474D02*
X63830Y67417D01*
X61290Y67417D02*
X61290Y68474D01*
X58750Y68474D02*
X58750Y67417D01*
X27000Y69957D02*
X27000Y71014D01*
X21920Y71014D02*
X21920Y69957D01*
D12*
X73535Y79040D02*
X73535Y81072D01*
X77419Y83106D02*
X79451Y83106D01*
X79451Y77106D02*
X77419Y77106D01*
D13*
X91795Y65723D02*
X93015Y65723D01*
X93015Y63183D02*
X91795Y63183D01*
X91795Y60643D02*
X93015Y60643D01*
X76264Y29249D02*
X75044Y29249D01*
X75044Y24727D02*
X76264Y24727D01*
X74663Y22594D02*
X74663Y21375D01*
X77115Y20994D02*
X78334Y20994D01*
X78334Y16473D02*
X77115Y16473D01*
X74663Y16091D02*
X74663Y14872D01*
X75044Y12739D02*
X76263Y12739D01*
X76263Y08218D02*
X75044Y08218D01*
X69761Y08218D02*
X68542Y08218D01*
X68542Y12739D02*
X69761Y12739D01*
X70142Y14872D02*
X70142Y16091D01*
X67691Y16473D02*
X66472Y16473D01*
X66472Y20994D02*
X67691Y20994D01*
X70142Y21375D02*
X70142Y22594D01*
X69761Y24727D02*
X68542Y24727D01*
X68542Y29249D02*
X69761Y29249D01*
X61189Y20994D02*
X59969Y20994D01*
X59969Y16473D02*
X61189Y16473D01*
X44196Y12739D02*
X42977Y12739D01*
X42977Y08218D02*
X44196Y08218D01*
X37694Y08218D02*
X36474Y08218D01*
X36474Y12739D02*
X37694Y12739D01*
X83617Y16473D02*
X84836Y16473D01*
X84836Y20994D02*
X83617Y20994D01*
D14*
X86690Y13336D03*
X79070Y13336D03*
X64465Y24131D03*
X60338Y26671D03*
X56210Y24131D03*
X54623Y21591D03*
X53035Y24130D03*
X49225Y21591D03*
X47955Y24131D03*
X44780Y24131D03*
X43828Y21591D03*
X41605Y24131D03*
X38430Y24131D03*
X38430Y21591D03*
X38430Y19051D03*
X33033Y19051D03*
X33033Y21591D03*
X32080Y24131D03*
X28905Y24131D03*
X27635Y21591D03*
X25730Y24131D03*
X22238Y21591D03*
X20650Y24131D03*
X16840Y24131D03*
X16840Y21591D03*
X16840Y19051D03*
X22238Y19051D03*
X27635Y19051D03*
X35255Y24131D03*
X35255Y31751D03*
X32080Y31751D03*
X28905Y31751D03*
X25730Y31751D03*
X20650Y31751D03*
X16840Y31751D03*
X38430Y31751D03*
X41605Y31751D03*
X44780Y31751D03*
X47955Y31751D03*
X53035Y31750D03*
X56210Y31751D03*
X60338Y31751D03*
X64465Y31751D03*
X71450Y31750D03*
X71450Y34926D03*
X69228Y38101D03*
X74308Y38101D03*
X79070Y34926D03*
X79070Y31750D03*
X74308Y53341D03*
X74308Y56833D03*
X69228Y53341D03*
X66688Y56833D03*
X63195Y56833D03*
X55575Y56833D03*
X52400Y57786D03*
X51130Y59691D03*
X53670Y59691D03*
X46685Y60326D03*
X42240Y56515D03*
X39065Y60326D03*
X35573Y60326D03*
X37160Y56515D03*
X27953Y60326D03*
X57861Y72391D03*
X63576Y72391D03*
X69291Y72390D03*
X75006Y72391D03*
X80721Y72391D03*
X80975Y66676D03*
X80975Y63183D03*
X80975Y59691D03*
X86055Y59691D03*
X86055Y63183D03*
X86055Y66676D03*
X68910Y79217D03*
X68910Y81757D03*
X54623Y19051D03*
X49225Y19051D03*
X43828Y19051D03*
D15*
X71450Y43308D03*
X71450Y48134D03*
X72974Y72391D03*
X67259Y72390D03*
X61544Y72391D03*
X55829Y72391D03*
X78689Y72391D03*
D16*
X52400Y73661D03*
X52400Y70486D03*
X42240Y70486D03*
X42240Y73661D03*
D17*
X85420Y74296D03*
D18*
X90500Y74296D03*
D19*
X90566Y55246D02*
X91704Y55246D01*
X91704Y52706D02*
X90566Y52706D01*
X90566Y50166D02*
X91704Y50166D01*
X91704Y29846D02*
X90566Y29846D01*
X90566Y27306D02*
X91704Y27306D01*
X91704Y24766D02*
X90566Y24766D01*
X90566Y21591D02*
X91704Y21591D01*
X91704Y19051D02*
X90566Y19051D01*
X90566Y16511D02*
X91704Y16511D01*
X53670Y63567D02*
X53670Y64705D01*
X51130Y64705D02*
X51130Y63567D01*
X48590Y63567D02*
X48590Y64705D01*
X46050Y64705D02*
X46050Y63567D01*
X43510Y63567D02*
X43510Y64705D01*
X40970Y64705D02*
X40970Y63567D01*
X38430Y63567D02*
X38430Y64705D01*
X35890Y64705D02*
X35890Y63567D01*
X33350Y63567D02*
X33350Y64705D01*
X30810Y64705D02*
X30810Y63567D01*
X28270Y63567D02*
X28270Y64705D01*
X25730Y64705D02*
X25730Y63567D01*
X23190Y63567D02*
X23190Y64705D01*
X20650Y64705D02*
X20650Y63567D01*
X18110Y63567D02*
X18110Y64705D01*
X15570Y64705D02*
X15570Y63567D01*
D20*
X85070Y33136D03*
D21*
X55982Y77947D03*
X53238Y77947D03*
X50495Y77947D03*
X47752Y77947D03*
X45009Y77947D03*
X46380Y80487D03*
X49124Y80487D03*
X51867Y80487D03*
X54610Y80487D03*
X11760Y64771D03*
X09220Y64771D03*
X09220Y62231D03*
X09220Y59691D03*
X11760Y59691D03*
X11760Y62231D03*
X11760Y57151D03*
X11760Y54611D03*
X09220Y54611D03*
X09220Y57151D03*
X09220Y52071D03*
X11760Y52071D03*
X11760Y49531D03*
X11760Y46991D03*
X09220Y46991D03*
X09220Y49531D03*
X09220Y44451D03*
X09220Y41911D03*
X11760Y41911D03*
X11760Y44451D03*
X11760Y39371D03*
X09220Y39371D03*
X09220Y36831D03*
X09220Y34291D03*
X11760Y34291D03*
X11760Y36831D03*
X11760Y31751D03*
X09220Y31751D03*
X09220Y29211D03*
X09220Y26671D03*
X11760Y26671D03*
X11760Y29211D03*
X11760Y24131D03*
X11760Y21591D03*
X09220Y21591D03*
X09220Y24131D03*
X09220Y19051D03*
X11760Y19051D03*
X11760Y16511D03*
X09220Y16511D03*
D22*
X71450Y45721D03*
D23*
X63017Y79217D03*
X37973Y79217D03*
D24*
X39065Y71756D03*
X39065Y69216D03*
X36525Y69216D03*
X36525Y71756D03*
X33985Y71756D03*
X33985Y69216D03*
X31445Y69216D03*
X31445Y71756D03*
X80340Y27940D03*
X80340Y25400D03*
X82880Y25400D03*
X85420Y25400D03*
X85420Y27940D03*
X82880Y27940D03*
D25*
X16205Y68581D03*
X16205Y71121D03*
X13665Y73661D03*
X11125Y71121D03*
X11125Y68581D03*
X13665Y78741D03*
D26*
X53988Y12542D02*
X53988Y12145D01*
X53988Y11589D01*
X53988Y12145D02*
X56051Y12145D01*
X56051Y12542D01*
X56049Y12606D01*
X56043Y12669D01*
X56033Y12732D01*
X56020Y12794D01*
X56002Y12855D01*
X55981Y12915D01*
X55957Y12973D01*
X55928Y13030D01*
X55896Y13085D01*
X55861Y13138D01*
X55823Y13189D01*
X55782Y13237D01*
X55737Y13283D01*
X55690Y13326D01*
X55641Y13366D01*
X55589Y13402D01*
X55535Y13436D01*
X55479Y13466D01*
X55421Y13492D01*
X55362Y13515D01*
X55301Y13535D01*
X55240Y13550D01*
X55177Y13562D01*
X55114Y13570D01*
X55051Y13574D01*
X54987Y13574D01*
X54924Y13570D01*
X54861Y13562D01*
X54798Y13550D01*
X54737Y13535D01*
X54676Y13515D01*
X54617Y13492D01*
X54559Y13466D01*
X54503Y13436D01*
X54449Y13402D01*
X54397Y13366D01*
X54348Y13326D01*
X54301Y13283D01*
X54256Y13237D01*
X54215Y13189D01*
X54177Y13138D01*
X54142Y13085D01*
X54110Y13030D01*
X54081Y12973D01*
X54057Y12915D01*
X54036Y12855D01*
X54018Y12794D01*
X54005Y12732D01*
X53995Y12669D01*
X53989Y12606D01*
X53987Y12542D01*
X53987Y11590D02*
X53988Y11526D01*
X53993Y11463D01*
X54002Y11400D01*
X54014Y11337D01*
X54031Y11276D01*
X54051Y11215D01*
X54075Y11156D01*
X54102Y11099D01*
X54133Y11043D01*
X54167Y10990D01*
X54205Y10938D01*
X54245Y10890D01*
X54289Y10843D01*
X54335Y10800D01*
X54384Y10759D01*
X54436Y10721D01*
X54489Y10687D01*
X54545Y10656D01*
X54602Y10628D01*
X54661Y10604D01*
X54721Y10584D01*
X54783Y10568D01*
X54845Y10555D01*
X54908Y10546D01*
X54971Y10541D01*
X55035Y10540D01*
X55099Y10543D01*
X55162Y10550D01*
X55224Y10560D01*
X55286Y10575D01*
X55347Y10593D01*
X55407Y10615D01*
X55465Y10641D01*
X55522Y10670D01*
X55576Y10703D01*
X55629Y10739D01*
X55679Y10778D01*
X55727Y10820D01*
X55772Y10865D01*
X55814Y10912D01*
X55853Y10962D01*
D27*
X26980Y75936D03*
X26980Y77936D03*
X24480Y77936D03*
X24480Y75936D03*
D28*
X19710Y80646D03*
X31750Y80646D03*
D29*
X29858Y12701D03*
X27318Y12701D03*
X24778Y12701D03*
X22238Y12701D03*
X19698Y12701D03*
X19698Y10161D03*
X22238Y10161D03*
X24778Y10161D03*
X27318Y10161D03*
X29858Y10161D03*
D30*
X32715Y08891D03*
X34620Y14288D03*
X30334Y17781D03*
X36049Y18892D03*
X41129Y20321D03*
X36843Y26671D03*
X30493Y26353D03*
X30493Y27941D03*
X20809Y34132D03*
X18428Y35084D03*
X16205Y36196D03*
X14300Y30163D03*
X07950Y33021D03*
X07315Y30798D03*
X14459Y19051D03*
X14856Y15399D03*
X16205Y11431D03*
X19539Y16987D03*
X19539Y20321D03*
X18745Y22861D03*
X39542Y11113D03*
X41129Y11113D03*
X50495Y26988D03*
X50495Y29528D03*
X54623Y29528D03*
X54623Y27941D03*
X57956Y26353D03*
X59068Y23496D03*
X57957Y30798D03*
X57956Y33814D03*
X59226Y35005D03*
X56052Y34926D03*
X52400Y40006D03*
X53353Y42387D03*
X53035Y44609D03*
X51606Y46673D03*
X52400Y47943D03*
X53353Y46832D03*
X55416Y49372D03*
X59385Y48261D03*
X60973Y48896D03*
X60973Y46356D03*
X57321Y44371D03*
X59385Y42387D03*
X62560Y40006D03*
X67164Y34608D03*
X68752Y35243D03*
X64465Y33656D03*
X71133Y39688D03*
X74625Y40641D03*
X74625Y43181D03*
X80975Y39688D03*
X77007Y36196D03*
X74943Y33338D03*
X77800Y26671D03*
X74625Y18257D03*
X73038Y17781D03*
X87008Y17781D03*
X68117Y48261D03*
X72879Y51753D03*
X64783Y55563D03*
X60020Y62231D03*
X57480Y56833D03*
X67640Y65247D03*
X65894Y73819D03*
X65894Y75883D03*
X68593Y75566D03*
X56845Y80646D03*
X43431Y58817D03*
X44145Y56516D03*
X39700Y55246D03*
X34303Y57151D03*
X32715Y58421D03*
X26842Y50166D03*
X22238Y48578D03*
X20492Y46514D03*
X18587Y45244D03*
X17793Y46514D03*
X18269Y47943D03*
X17793Y49372D03*
X22873Y56912D03*
X14141Y61754D03*
X31604Y49689D03*
X33192Y49372D03*
X34779Y49054D03*
X36366Y48737D03*
X37954Y48419D03*
X41923Y43657D03*
X42240Y40164D03*
X39700Y40006D03*
X42240Y35085D03*
X39700Y34926D03*
X45733Y33338D03*
X48590Y34132D03*
X45574Y47626D03*
D31*
X60020Y44768D03*
M02*
