%
M48
METRIC,TZ,000.000
T01C0.500000
T02C0.600000
T03C0.800000
T04C0.812800
T05C0.900000
T06C0.914400
T07C0.950000
T08C1.000000
T09C1.016000
T10C1.117600
T11C1.320800
T12C2.300000
T13C2.500000
T14C3.048000
T15C3.302000
%
T01
X60020Y44768
T02
X60973Y46356
X59385Y48261
X60973Y48896
X57321Y44371
X59385Y42387
X62560Y40006
X59226Y35005
X57956Y33814
X56052Y34926
X57957Y30798
X54623Y29528
X54623Y27941
X57956Y26353
X59068Y23496
X50495Y26988
X50495Y29528
X48590Y34132
X45733Y33338
X42240Y35085
X39700Y34926
X39700Y40006
X42240Y40164
X41923Y43657
X45574Y47626
X51606Y46673
X52400Y47943
X53353Y46832
X55416Y49372
X53035Y44609
X53353Y42387
X52400Y40006
X64465Y33656
X67164Y34608
X68752Y35243
X71133Y39688
X74625Y40641
X74625Y43181
X80975Y39688
X77007Y36196
X74943Y33338
X77800Y26671
X74625Y18257
X73038Y17781
X87008Y17781
X68117Y48261
X72879Y51753
X64783Y55563
X60020Y62231
X57480Y56833
X67640Y65247
X65894Y73819
X65894Y75883
X68593Y75566
X56845Y80646
X43431Y58817
X44145Y56516
X39700Y55246
X34303Y57151
X32715Y58421
X26842Y50166
X22238Y48578
X20492Y46514
X18587Y45244
X17793Y46514
X18269Y47943
X17793Y49372
X22873Y56912
X14141Y61754
X31604Y49689
X33192Y49372
X34779Y49054
X36366Y48737
X37954Y48419
X20809Y34132
X18428Y35084
X16205Y36196
X14300Y30163
X7950Y33021
X7315Y30798
X14459Y19051
X14856Y15399
X16205Y11431
X19539Y16987
X19539Y20321
X18745Y22861
X30493Y26353
X30493Y27941
X36843Y26671
X41129Y20321
X36049Y18892
X34620Y14288
X30334Y17781
X32715Y8891
X39542Y11113
X41129Y11113
T03
X71450Y45721
T04
X71450Y43308
X71450Y48134
X69228Y53341
X66370Y53341
X63830Y53341
X61290Y53341
X58750Y53341
X56210Y53341
X53670Y53341
X51130Y53341
X48590Y53341
X46050Y53341
X43510Y53341
X40970Y53341
X38430Y53341
X35890Y53341
X33350Y53341
X30810Y53341
X28270Y53341
X25730Y53341
X23190Y53341
X20650Y53341
X18110Y53341
X27953Y60326
X35573Y60326
X39065Y60326
X37160Y56515
X42240Y56515
X46685Y60326
X51130Y59691
X52400Y57786
X53670Y59691
X55575Y56833
X58750Y60325
X61290Y60325
X63830Y60325
X66370Y60325
X68910Y60325
X71450Y60325
X73990Y60325
X76530Y60325
X74308Y56833
X77800Y55881
X77800Y53341
X77800Y50801
X77800Y48261
X77800Y45721
X77800Y43181
X77800Y40641
X77800Y38101
X74308Y38101
X71450Y34926
X71450Y31750
X69228Y38101
X66370Y38101
X63830Y38101
X61290Y38101
X58750Y38101
X56210Y38101
X53670Y38101
X51130Y38101
X48590Y38101
X46050Y38101
X43510Y38101
X40970Y38101
X38430Y38101
X35890Y38101
X33350Y38101
X30810Y38101
X28270Y38101
X25730Y38101
X23190Y38101
X20650Y38101
X18110Y38101
X16840Y31751
X20650Y31751
X25730Y31751
X28905Y31751
X32080Y31751
X35255Y31751
X38430Y31751
X41605Y31751
X44780Y31751
X47955Y31751
X53035Y31750
X56210Y31751
X60338Y31751
X64465Y31751
X60338Y26671
X56210Y24131
X54623Y21591
X53035Y24130
X49225Y21591
X47955Y24131
X44780Y24131
X43828Y21591
X41605Y24131
X38430Y24131
X38430Y21591
X38430Y19051
X33033Y19051
X33033Y21591
X32080Y24131
X28905Y24131
X27635Y21591
X25730Y24131
X22238Y21591
X20650Y24131
X16840Y24131
X16840Y21591
X16840Y19051
X22238Y19051
X27635Y19051
X35255Y24131
X43828Y19051
X49225Y19051
X54623Y19051
X64465Y24131
X79070Y31750
X79070Y34926
X85420Y38101
X85420Y40641
X85420Y43181
X85420Y45721
X85420Y48261
X85420Y50801
X85420Y53341
X85420Y55881
X86055Y59691
X86055Y63183
X86055Y66676
X80975Y66676
X80975Y63183
X80975Y59691
X74308Y53341
X66688Y56833
X63195Y56833
X63830Y67945
X66370Y67945
X68910Y67945
X71450Y67945
X73990Y67945
X76530Y67945
X75006Y72391
X72974Y72391
X69291Y72390
X67259Y72390
X63576Y72391
X61544Y72391
X57861Y72391
X55829Y72391
X58750Y67945
X61290Y67945
X68910Y79217
X68910Y81757
X73535Y80056
X78435Y77106
X78689Y72391
X80721Y72391
X78435Y83106
X91135Y46356
X91135Y43816
X91135Y41276
X91135Y38736
X91135Y36196
X91135Y33656
X86690Y13336
X79070Y13336
X27000Y70486
X21920Y70486
T05
X20650Y64136
X18110Y64136
X15570Y64136
X23190Y64136
X25730Y64136
X28270Y64136
X30810Y64136
X33350Y64136
X35890Y64136
X38430Y64136
X40970Y64136
X43510Y64136
X46050Y64136
X48590Y64136
X51130Y64136
X53670Y64136
T06
X39065Y69216
X39065Y71756
X36525Y71756
X33985Y71756
X33985Y69216
X36525Y69216
X31445Y69216
X31445Y71756
X80340Y27940
X80340Y25400
X82880Y25400
X85420Y25400
X85420Y27940
X82880Y27940
X91135Y27306
X91135Y29846
X91135Y24766
X91135Y21591
X91135Y19051
X91135Y16511
X91135Y50166
X91135Y52706
X91135Y55246
T07
X26980Y75936
X26980Y77936
X24480Y77936
X24480Y75936
T08
X24778Y12701
X22238Y12701
X19698Y12701
X19698Y10161
X22238Y10161
X24778Y10161
X27318Y10161
X27318Y12701
X29858Y12701
X29858Y10161
T09
X37084Y8218
X37084Y12739
X43586Y12739
X43586Y8218
X60579Y16473
X60579Y20994
X67082Y20994
X70142Y21984
X69152Y24727
X69152Y29249
X75654Y29249
X75654Y24727
X74663Y21984
X77724Y20994
X77724Y16473
X74663Y15482
X75654Y12739
X75654Y8218
X69151Y8218
X69151Y12739
X70142Y15482
X67082Y16473
X84227Y16473
X84227Y20994
X92405Y60643
X92405Y63183
X92405Y65723
X90500Y74296
X85420Y74296
X55982Y77947
X53238Y77947
X50495Y77947
X47752Y77947
X45009Y77947
X46380Y80487
X49124Y80487
X51867Y80487
X54610Y80487
X11760Y64771
X9220Y64771
X9220Y62231
X9220Y59691
X11760Y59691
X11760Y62231
X11760Y57151
X11760Y54611
X9220Y54611
X9220Y57151
X9220Y52071
X11760Y52071
X11760Y49531
X11760Y46991
X9220Y46991
X9220Y49531
X9220Y44451
X9220Y41911
X11760Y41911
X11760Y44451
X11760Y39371
X9220Y39371
X9220Y36831
X9220Y34291
X11760Y34291
X11760Y36831
X11760Y31751
X9220Y31751
X9220Y29211
X9220Y26671
X11760Y26671
X11760Y29211
X11760Y24131
X11760Y21591
X9220Y21591
X9220Y24131
X9220Y19051
X11760Y19051
X11760Y16511
X9220Y16511
T10
X42240Y70486
X42240Y73661
X52400Y73661
X52400Y70486
T11
X16205Y71121
X16205Y68581
X11125Y68581
X11125Y71121
X13665Y73661
X13665Y78741
T12
X19710Y80646
X31750Y80646
T13
X85070Y33136
T14
X10490Y10796
X10490Y82709
X90500Y82709
X90500Y10796
T15
X63017Y79217
X37973Y79217
M30
